<svg width="686" height="78" viewBox="0 0 686 78" fill="none" xmlns="http://www.w3.org/2000/svg">
<g clip-path="url(#clip0_1_199)">
<path d="M0.913544 76V8.94998H10.6383L35.3923 43.87H30.5299L54.8419 8.94998H64.5666V76H54.223V21.46L58.1129 22.54L33.2705 57.1H32.2096L7.8977 22.54L11.3456 21.46V76H0.913544ZM91.5329 77.08C88.2913 77.08 85.4328 76.51 82.9574 75.37C80.5409 74.17 78.6549 72.55 77.2993 70.51C75.9437 68.41 75.266 65.95 75.266 63.13C75.266 60.49 75.8259 58.12 76.9457 56.02C78.1245 53.92 79.9221 52.15 82.3385 50.71C84.755 49.27 87.7903 48.25 91.4445 47.65L108.065 44.86V52.87L93.3894 55.48C90.7372 55.96 88.7922 56.83 87.5545 58.09C86.3168 59.29 85.698 60.85 85.698 62.77C85.698 64.63 86.3758 66.16 87.7314 67.36C89.1459 68.5 90.9435 69.07 93.1242 69.07C95.8353 69.07 98.1929 68.47 100.197 67.27C102.259 66.07 103.851 64.48 104.971 62.5C106.09 60.46 106.65 58.21 106.65 55.75V43.24C106.65 40.84 105.766 38.89 103.998 37.39C102.289 35.83 99.9904 35.05 97.1025 35.05C94.4503 35.05 92.1222 35.77 90.1183 37.21C88.1734 38.59 86.7294 40.39 85.7864 42.61L77.4761 38.38C78.3602 35.98 79.8042 33.88 81.8081 32.08C83.812 30.22 86.14 28.78 88.7922 27.76C91.5034 26.74 94.3619 26.23 97.3677 26.23C101.14 26.23 104.47 26.95 107.358 28.39C110.305 29.83 112.574 31.84 114.165 34.42C115.815 36.94 116.64 39.88 116.64 43.24V76H107.092V67.18L109.126 67.45C108.006 69.43 106.562 71.14 104.794 72.58C103.085 74.02 101.11 75.13 98.8705 75.91C96.6899 76.69 94.244 77.08 91.5329 77.08ZM128.321 76V27.31H138.311V76H128.321ZM128.321 20.65V8.94998H138.311V20.65H128.321ZM167.673 77.08C162.781 77.08 158.479 75.85 154.765 73.39C151.111 70.93 148.547 67.63 147.074 63.49L154.765 59.8C156.062 62.56 157.83 64.75 160.07 66.37C162.368 67.99 164.903 68.8 167.673 68.8C170.03 68.8 171.946 68.26 173.419 67.18C174.893 66.1 175.629 64.63 175.629 62.77C175.629 61.57 175.305 60.61 174.657 59.89C174.009 59.11 173.184 58.48 172.182 58C171.239 57.52 170.266 57.16 169.264 56.92L161.75 54.76C157.624 53.56 154.53 51.76 152.467 49.36C150.463 46.9 149.461 44.05 149.461 40.81C149.461 37.87 150.198 35.32 151.671 33.16C153.145 30.94 155.178 29.23 157.771 28.03C160.365 26.83 163.282 26.23 166.524 26.23C170.885 26.23 174.775 27.34 178.193 29.56C181.612 31.72 184.028 34.75 185.443 38.65L177.751 42.34C176.808 40 175.305 38.14 173.242 36.76C171.239 35.38 168.969 34.69 166.435 34.69C164.254 34.69 162.516 35.23 161.219 36.31C159.922 37.33 159.274 38.68 159.274 40.36C159.274 41.5 159.569 42.46 160.158 43.24C160.748 43.96 161.514 44.56 162.457 45.04C163.4 45.46 164.372 45.82 165.374 46.12L173.154 48.46C177.103 49.6 180.138 51.4 182.26 53.86C184.382 56.26 185.443 59.14 185.443 62.5C185.443 65.38 184.676 67.93 183.144 70.15C181.671 72.31 179.608 74.02 176.956 75.28C174.303 76.48 171.209 77.08 167.673 77.08ZM242.335 77.08C237.678 77.08 233.347 76.21 229.339 74.47C225.39 72.73 221.942 70.33 218.995 67.27C216.107 64.15 213.838 60.49 212.188 56.29C210.538 52.09 209.712 47.47 209.712 42.43C209.712 37.45 210.508 32.86 212.099 28.66C213.75 24.4 216.048 20.74 218.995 17.68C221.942 14.56 225.39 12.16 229.339 10.48C233.288 8.73999 237.62 7.86999 242.335 7.86999C246.991 7.86999 251.146 8.67999 254.8 10.3C258.513 11.92 261.637 14.05 264.171 16.69C266.705 19.27 268.533 22.09 269.652 25.15L260.281 29.65C258.867 26.05 256.598 23.14 253.474 20.92C250.409 18.64 246.696 17.5 242.335 17.5C237.973 17.5 234.113 18.55 230.753 20.65C227.394 22.75 224.771 25.66 222.885 29.38C221.058 33.1 220.144 37.45 220.144 42.43C220.144 47.41 221.058 51.79 222.885 55.57C224.771 59.29 227.394 62.2 230.753 64.3C234.113 66.34 237.973 67.36 242.335 67.36C246.696 67.36 250.409 66.25 253.474 64.03C256.598 61.81 258.867 58.9 260.281 55.3L269.652 59.8C268.533 62.8 266.705 65.62 264.171 68.26C261.637 70.9 258.513 73.03 254.8 74.65C251.146 76.27 246.991 77.08 242.335 77.08ZM301.618 77.08C297.021 77.08 292.807 75.97 288.976 73.75C285.204 71.53 282.198 68.5 279.959 64.66C277.719 60.82 276.599 56.47 276.599 51.61C276.599 46.69 277.719 42.34 279.959 38.56C282.198 34.72 285.204 31.72 288.976 29.56C292.748 27.34 296.962 26.23 301.618 26.23C306.333 26.23 310.548 27.34 314.261 29.56C318.033 31.72 321.009 34.72 323.19 38.56C325.429 42.34 326.549 46.69 326.549 51.61C326.549 56.53 325.429 60.91 323.19 64.75C320.95 68.59 317.944 71.62 314.172 73.84C310.4 76 306.216 77.08 301.618 77.08ZM301.618 67.63C304.447 67.63 306.952 66.94 309.133 65.56C311.314 64.18 313.023 62.29 314.261 59.89C315.557 57.43 316.206 54.67 316.206 51.61C316.206 48.55 315.557 45.82 314.261 43.42C313.023 41.02 311.314 39.13 309.133 37.75C306.952 36.37 304.447 35.68 301.618 35.68C298.848 35.68 296.343 36.37 294.104 37.75C291.923 39.13 290.184 41.02 288.888 43.42C287.65 45.82 287.031 48.55 287.031 51.61C287.031 54.67 287.65 57.43 288.888 59.89C290.184 62.29 291.923 64.18 294.104 65.56C296.343 66.94 298.848 67.63 301.618 67.63ZM336.302 76V27.31H345.85V36.85L344.701 35.59C345.88 32.53 347.766 30.22 350.359 28.66C352.952 27.04 355.958 26.23 359.377 26.23C362.913 26.23 366.037 27.01 368.748 28.57C371.459 30.13 373.581 32.29 375.113 35.05C376.646 37.81 377.412 40.99 377.412 44.59V76H367.51V47.29C367.51 44.83 367.068 42.76 366.184 41.08C365.3 39.34 364.033 38.02 362.383 37.12C360.791 36.16 358.964 35.68 356.901 35.68C354.839 35.68 352.982 36.16 351.332 37.12C349.74 38.02 348.503 39.34 347.619 41.08C346.735 42.82 346.292 44.89 346.292 47.29V76H336.302ZM401.12 76L382.377 27.31H393.251L407.662 67H403.683L418.094 27.31H429.056L410.226 76H401.12ZM457.439 77.08C452.665 77.08 448.421 75.97 444.708 73.75C441.054 71.47 438.196 68.41 436.133 64.57C434.07 60.67 433.038 56.32 433.038 51.52C433.038 46.6 434.07 42.25 436.133 38.47C438.255 34.69 441.084 31.72 444.62 29.56C448.156 27.34 452.164 26.23 456.643 26.23C460.238 26.23 463.451 26.86 466.28 28.12C469.109 29.38 471.496 31.12 473.441 33.34C475.385 35.5 476.859 37.99 477.861 40.81C478.922 43.63 479.452 46.63 479.452 49.81C479.452 50.59 479.423 51.4 479.364 52.24C479.305 53.08 479.187 53.86 479.01 54.58H440.907V46.48H473.352L468.578 50.17C469.168 47.23 468.961 44.62 467.959 42.34C467.016 40 465.543 38.17 463.539 36.85C461.594 35.47 459.295 34.78 456.643 34.78C453.991 34.78 451.633 35.47 449.571 36.85C447.508 38.17 445.916 40.09 444.797 42.61C443.677 45.07 443.235 48.07 443.471 51.61C443.176 54.91 443.618 57.79 444.797 60.25C446.034 62.71 447.744 64.63 449.924 66.01C452.164 67.39 454.698 68.08 457.527 68.08C460.415 68.08 462.861 67.42 464.865 66.1C466.928 64.78 468.549 63.07 469.727 60.97L477.861 65.02C476.918 67.3 475.444 69.37 473.441 71.23C471.496 73.03 469.138 74.47 466.368 75.55C463.657 76.57 460.68 77.08 457.439 77.08ZM489.202 76V27.31H498.749V37.12L497.865 35.68C498.926 32.5 500.636 30.22 502.993 28.84C505.351 27.4 508.18 26.68 511.48 26.68H514.398V35.95H510.242C506.942 35.95 504.26 37 502.197 39.1C500.193 41.14 499.192 44.08 499.192 47.92V76H489.202ZM538.914 77.08C534.022 77.08 529.719 75.85 526.006 73.39C522.352 70.93 519.788 67.63 518.315 63.49L526.006 59.8C527.303 62.56 529.071 64.75 531.311 66.37C533.609 67.99 536.144 68.8 538.914 68.8C541.271 68.8 543.187 68.26 544.66 67.18C546.134 66.1 546.87 64.63 546.87 62.77C546.87 61.57 546.546 60.61 545.898 59.89C545.25 59.11 544.425 58.48 543.423 58C542.48 57.52 541.507 57.16 540.505 56.92L532.991 54.76C528.865 53.56 525.771 51.76 523.708 49.36C521.704 46.9 520.702 44.05 520.702 40.81C520.702 37.87 521.439 35.32 522.912 33.16C524.386 30.94 526.419 29.23 529.012 28.03C531.606 26.83 534.523 26.23 537.765 26.23C542.126 26.23 546.016 27.34 549.434 29.56C552.853 31.72 555.269 34.75 556.684 38.65L548.992 42.34C548.049 40 546.546 38.14 544.483 36.76C542.48 35.38 540.21 34.69 537.676 34.69C535.495 34.69 533.757 35.23 532.46 36.31C531.163 37.33 530.515 38.68 530.515 40.36C530.515 41.5 530.81 42.46 531.399 43.24C531.989 43.96 532.755 44.56 533.698 45.04C534.641 45.46 535.613 45.82 536.615 46.12L544.395 48.46C548.344 49.6 551.379 51.4 553.501 53.86C555.623 56.26 556.684 59.14 556.684 62.5C556.684 65.38 555.917 67.93 554.385 70.15C552.912 72.31 550.849 74.02 548.197 75.28C545.544 76.48 542.45 77.08 538.914 77.08ZM580.793 77.08C577.552 77.08 574.693 76.51 572.218 75.37C569.801 74.17 567.915 72.55 566.56 70.51C565.204 68.41 564.526 65.95 564.526 63.13C564.526 60.49 565.086 58.12 566.206 56.02C567.385 53.92 569.182 52.15 571.599 50.71C574.015 49.27 577.051 48.25 580.705 47.65L597.325 44.86V52.87L582.65 55.48C579.998 55.96 578.053 56.83 576.815 58.09C575.577 59.29 574.958 60.85 574.958 62.77C574.958 64.63 575.636 66.16 576.992 67.36C578.406 68.5 580.204 69.07 582.385 69.07C585.096 69.07 587.453 68.47 589.457 67.27C591.52 66.07 593.111 64.48 594.231 62.5C595.351 60.46 595.911 58.21 595.911 55.75V43.24C595.911 40.84 595.027 38.89 593.259 37.39C591.549 35.83 589.251 35.05 586.363 35.05C583.711 35.05 581.383 35.77 579.379 37.21C577.434 38.59 575.99 40.39 575.047 42.61L566.737 38.38C567.621 35.98 569.065 33.88 571.068 32.08C573.072 30.22 575.4 28.78 578.053 27.76C580.764 26.74 583.622 26.23 586.628 26.23C590.4 26.23 593.73 26.95 596.618 28.39C599.565 29.83 601.834 31.84 603.425 34.42C605.076 36.94 605.901 39.88 605.901 43.24V76H596.353V67.18L598.386 67.45C597.266 69.43 595.822 71.14 594.054 72.58C592.345 74.02 590.371 75.13 588.131 75.91C585.95 76.69 583.504 77.08 580.793 77.08ZM592.728 18.4C591.137 18.4 589.811 18.13 588.75 17.59C587.748 17.05 586.864 16.45 586.098 15.79C585.39 15.13 584.654 14.53 583.887 13.99C583.18 13.45 582.326 13.18 581.324 13.18C580.322 13.18 579.556 13.57 579.025 14.35C578.495 15.13 578.229 16.36 578.229 18.04H570.361C570.361 13.6 571.334 10.33 573.279 8.22999C575.224 6.06999 577.64 4.98999 580.528 4.98999C582.178 4.98999 583.504 5.25999 584.506 5.79999C585.567 6.27999 586.481 6.87999 587.247 7.59999C588.013 8.25999 588.75 8.85999 589.457 9.39999C590.223 9.87999 591.078 10.12 592.021 10.12C593.141 10.12 593.936 9.69999 594.408 8.85999C594.938 8.01999 595.204 6.84999 595.204 5.34999H602.983C602.983 9.54999 601.981 12.79 599.978 15.07C598.033 17.29 595.616 18.4 592.728 18.4ZM640.657 77.08C636.059 77.08 631.845 75.97 628.014 73.75C624.242 71.53 621.237 68.5 618.997 64.66C616.757 60.82 615.637 56.47 615.637 51.61C615.637 46.69 616.757 42.34 618.997 38.56C621.237 34.72 624.242 31.72 628.014 29.56C631.786 27.34 636.001 26.23 640.657 26.23C645.372 26.23 649.586 27.34 653.299 29.56C657.071 31.72 660.047 34.72 662.228 38.56C664.468 42.34 665.587 46.69 665.587 51.61C665.587 56.53 664.468 60.91 662.228 64.75C659.988 68.59 656.982 71.62 653.21 73.84C649.438 76 645.254 77.08 640.657 77.08ZM640.657 67.63C643.486 67.63 645.99 66.94 648.171 65.56C650.352 64.18 652.061 62.29 653.299 59.89C654.595 57.43 655.244 54.67 655.244 51.61C655.244 48.55 654.595 45.82 653.299 43.42C652.061 41.02 650.352 39.13 648.171 37.75C645.99 36.37 643.486 35.68 640.657 35.68C637.887 35.68 635.382 36.37 633.142 37.75C630.961 39.13 629.223 41.02 627.926 43.42C626.688 45.82 626.069 48.55 626.069 51.61C626.069 54.67 626.688 57.43 627.926 59.89C629.223 62.29 630.961 64.18 633.142 65.56C635.382 66.94 637.887 67.63 640.657 67.63Z" fill="#1B7EFF"/>
</g>
<path d="M666.062 28.6686C666.685 29.7445 667.832 30.4076 669.075 30.4076H682.084C684.007 30.4076 685.564 28.8502 685.564 26.9272C685.564 25.0041 684.007 23.4468 682.084 23.4468H669.075C666.397 23.4468 664.722 26.3467 666.062 28.6686Z" fill="url(#paint0_linear_1_199)"/>
<path d="M670.291 0.466741C668.625 -0.493614 666.496 0.0750483 665.536 1.74092L657.759 15.2118C656.799 16.8777 657.367 19.0061 659.033 19.9664C660.697 20.9268 662.825 20.3558 663.788 18.6922L671.565 5.22132C672.525 3.55781 671.957 1.42945 670.291 0.466741Z" fill="url(#paint1_linear_1_199)"/>
<path d="M652.261 15.2142L644.498 1.74089C643.538 0.0773815 641.409 -0.49364 639.743 0.466714H639.741C638.075 1.42707 637.506 3.55542 638.467 5.22129L646.23 18.6922C646.85 19.7682 647.999 20.4312 649.243 20.4312H649.245C651.926 20.4336 653.601 17.5337 652.261 15.2142Z" fill="url(#paint2_linear_1_199)"/>
<defs>
<linearGradient id="paint0_linear_1_199" x1="665.608" y1="371.496" x2="2663.07" y2="371.496" gradientUnits="userSpaceOnUse">
<stop stop-color="#00E1FF"/>
<stop offset="1" stop-color="#00B8FF"/>
</linearGradient>
<linearGradient id="paint1_linear_1_199" x1="657.142" y1="1021.72" x2="2131.28" y2="1021.72" gradientUnits="userSpaceOnUse">
<stop stop-color="#00E1FF"/>
<stop offset="1" stop-color="#00B8FF"/>
</linearGradient>
<linearGradient id="paint2_linear_1_199" x1="638.051" y1="1021.67" x2="2111.28" y2="1021.67" gradientUnits="userSpaceOnUse">
<stop stop-color="#00E1FF"/>
<stop offset="1" stop-color="#00B8FF"/>
</linearGradient>
<clipPath id="clip0_1_199">
<rect width="666" height="74" fill="white" transform="translate(0 4)"/>
</clipPath>
</defs>
</svg>
